<svg width="9" height="16" viewBox="0 0 9 16" fill="none" xmlns="http://www.w3.org/2000/svg">
<path fill-rule="evenodd" clip-rule="evenodd" d="M7.90001 0C8.45229 0 8.90001 0.44772 8.90001 1V2.2C8.90001 2.75228 8.45229 3.2 7.90001 3.2H6.50001C5.94801 3.2 5.70001 3.848 5.70001 4.4V6.4H7.10001C7.65229 6.4 8.10001 6.84772 8.10001 7.4V8.6C8.10001 9.15228 7.65229 9.6 7.10001 9.6H5.70001V15C5.70001 15.5523 5.25229 16 4.70001 16H3.50001C2.94773 16 2.50001 15.5523 2.50001 15V9.6H1.10001C0.547726 9.6 0.100006 9.15228 0.100006 8.6V7.4C0.100006 6.84772 0.547726 6.4 1.10001 6.4H2.50001V3.2C2.50001 1.43269 3.9327 0 5.70001 0H7.90001Z" fill="#37474F"/>
</svg>
