<svg width="17" height="14" viewBox="0 0 17 14" fill="none" xmlns="http://www.w3.org/2000/svg">
<path fill-rule="evenodd" clip-rule="evenodd" d="M6.13594 13.831C4.79585 13.8463 3.56197 13.563 2.46039 13.0809C1.8052 12.7939 1.3237 12.498 1.03481 12.2749C-0.0109794 11.4672 0.583912 9.7941 1.90509 9.82738C2.15889 9.83457 2.39649 9.83008 2.61878 9.81748C2.19759 9.31916 1.97439 8.81814 1.88349 8.40527C1.85199 8.26225 1.8448 8.12013 1.85739 7.98341C1.7701 7.87727 1.6891 7.76843 1.6135 7.65509C1.07891 6.85454 0.921408 6.0315 0.965507 5.32899C0.970007 5.25973 0.970007 5.25973 0.975407 5.21745C0.998807 5.01327 1.06451 4.82977 1.1608 4.66966C0.878208 3.76836 0.942108 2.86257 1.2085 2.00895C1.2958 1.731 1.3867 1.51422 1.4614 1.36851C1.90239 0.50049 3.08498 0.359269 3.71857 1.09956C4.71576 2.2644 5.70034 2.95702 6.63993 3.29253C6.75603 3.33481 6.86853 3.36989 6.97562 3.39867C7.27442 1.51242 8.5173 0.383556 9.71069 0.282812C11.0076 0.0273546 12.1722 0.212651 13.1522 0.685787C13.2062 0.710973 13.2575 0.737058 13.307 0.763143L14.2682 0.374561C15.2582 -0.0257157 16.304 0.811716 16.1303 1.86413C16.601 2.38134 16.6757 3.24576 16.0394 3.81514L15.0539 4.69575C15.0656 5.77964 14.9171 6.7511 14.4608 7.83319C13.6463 9.76351 12.4799 11.2153 11.0517 12.2245C10.0428 12.9378 8.9637 13.3912 7.87561 13.635C7.23278 13.7787 6.67926 13.8325 6.25353 13.8325C6.21316 13.8325 6.17398 13.832 6.13594 13.831Z" fill="#37474F"/>
</svg>
